<?xml version="1.0" standalone="no"?>
<!DOCTYPE svg PUBLIC "-//W3C//DTD SVG 20010904//EN"
 "http://www.w3.org/TR/2001/REC-SVG-20010904/DTD/svg10.dtd">
<svg version="1.0" xmlns="http://www.w3.org/2000/svg"
 width="700.000000pt" height="700.000000pt" viewBox="0 0 700.000000 700.000000"
 preserveAspectRatio="xMidYMid meet">
<metadata>
Created by potrace 1.14, written by Peter Selinger 2001-2017
</metadata>
<g transform="translate(0.000000,700.000000) scale(0.100000,-0.100000)"
fill="#000000" stroke="none">
<path d="M3278 6995 c-1 -1 -41 -6 -88 -9 -87 -7 -104 -9 -225 -27 -142 -22
-140 -21 -325 -65 -105 -25 -426 -129 -445 -144 -5 -4 -21 -11 -35 -15 -42
-12 -325 -152 -396 -195 -36 -22 -68 -40 -71 -40 -4 0 -175 -113 -209 -139
-12 -9 -32 -23 -44 -31 -41 -27 -244 -192 -294 -239 -238 -224 -481 -511 -601
-713 -108 -181 -154 -264 -204 -368 -120 -251 -216 -534 -266 -785 -8 -38 -16
-79 -18 -90 -3 -11 -8 -40 -12 -65 -3 -25 -9 -58 -11 -74 -3 -16 -7 -50 -9
-75 -3 -25 -8 -82 -12 -126 -15 -153 -8 -601 12 -703 1 -9 6 -44 9 -77 4 -33
9 -67 11 -75 3 -8 7 -31 9 -51 20 -161 120 -504 211 -724 225 -547 589 -1029
1065 -1410 92 -74 370 -265 386 -265 4 0 15 -6 23 -14 19 -16 238 -129 327
-169 113 -50 209 -40 280 30 32 31 61 83 69 123 2 8 4 301 4 651 l1 637 28 11
c34 15 109 83 149 136 130 175 124 428 -15 605 -99 125 -246 192 -411 186
-356 -12 -581 -376 -437 -707 32 -75 111 -164 188 -215 35 -22 38 -28 39 -72
2 -207 -1 -805 -5 -809 -11 -12 -279 176 -421 296 -463 390 -828 964 -971
1526 -4 17 -8 35 -10 40 -14 48 -43 188 -54 255 -6 41 -13 85 -15 98 -5 28
-14 127 -20 207 -5 70 -6 331 0 390 1 22 6 76 10 120 6 80 38 275 56 350 5 22
11 47 13 55 67 274 194 586 333 819 410 686 1044 1174 1803 1389 101 29 131
36 195 48 17 3 49 9 73 15 23 5 59 12 80 14 20 3 46 7 57 10 140 28 646 27
825 -1 37 -6 175 -30 225 -39 67 -13 256 -66 355 -100 520 -181 966 -485 1321
-900 47 -55 112 -136 145 -180 74 -101 97 -121 159 -140 153 -45 295 62 295
224 0 56 -18 96 -86 188 -474 646 -1151 1107 -1934 1317 -98 26 -219 53 -280
62 -19 3 -60 9 -90 15 -30 5 -82 12 -115 15 -33 3 -71 8 -85 11 -27 5 -536 14
-542 8z"/>
<path d="M3383 5946 c-83 -21 -164 -67 -228 -131 -220 -220 -185 -580 74 -758
l46 -32 -2 -320 c-1 -176 -2 -329 -2 -340 -1 -16 -16 -26 -72 -45 -144 -48
-312 -176 -404 -305 -50 -69 -107 -181 -126 -242 l-12 -43 -439 0 -439 0 6 38
c13 82 17 100 36 172 20 75 43 147 59 185 53 123 68 157 92 198 15 26 28 50
28 53 0 8 79 123 133 194 27 36 110 124 183 196 83 81 140 146 149 169 47 111
-13 251 -127 298 -46 19 -142 16 -183 -5 -17 -9 -69 -50 -115 -90 -306 -268
-547 -654 -655 -1051 -28 -104 -30 -113 -39 -173 -3 -22 -8 -50 -11 -64 -19
-100 -26 -182 -27 -306 -1 -82 2 -106 19 -139 35 -67 95 -115 163 -130 8 -2
274 -4 591 -4 l576 -1 12 -40 c74 -247 296 -472 550 -558 l54 -18 1 -1245 1
-1246 30 -49 c61 -98 182 -139 281 -95 64 29 92 55 120 116 l24 50 0 1233 c0
1165 1 1233 18 1239 258 89 439 248 548 478 55 115 76 213 77 350 1 137 -5
181 -39 283 -93 278 -291 473 -586 575 -17 6 -18 31 -18 345 l0 339 53 36
c140 97 218 254 211 428 -8 207 -155 392 -359 451 -63 19 -185 21 -252 4z
m242 -2045 c136 -50 229 -143 274 -272 25 -74 23 -203 -6 -275 -90 -228 -347
-333 -566 -230 -274 127 -325 488 -99 693 37 33 113 71 175 87 58 16 175 14
222 -3z"/>
<path d="M4688 5229 c-67 -22 -132 -88 -148 -150 -24 -90 11 -197 82 -251 148
-113 340 -358 440 -563 122 -249 173 -475 172 -765 0 -175 -8 -253 -38 -388
-41 -182 -129 -389 -233 -551 -81 -125 -134 -189 -274 -331 -48 -48 -81 -91
-90 -116 -11 -31 -13 -199 -13 -854 l-1 -815 28 -47 c47 -81 134 -129 220
-122 96 9 447 197 699 375 207 147 414 333 577 518 31 35 63 71 71 80 8 9 44
54 80 101 36 47 67 87 71 90 26 24 197 302 273 445 128 239 273 643 321 894
19 100 35 195 40 236 4 28 8 61 11 75 26 150 25 703 -1 835 -2 11 -7 40 -10
65 -3 25 -7 56 -10 70 -3 14 -8 41 -10 60 -6 41 -56 259 -80 345 -36 132 -113
199 -230 199 -128 -1 -227 -98 -227 -224 0 -25 16 -106 35 -180 40 -154 68
-307 85 -460 9 -88 9 -496 -1 -595 -34 -357 -139 -724 -303 -1056 -78 -158
-205 -365 -288 -470 -12 -14 -32 -41 -46 -59 -182 -245 -580 -596 -826 -728
l-21 -11 1 529 1 529 56 58 c106 109 220 263 303 407 38 66 113 218 130 264
75 204 91 256 112 362 3 14 7 32 9 40 3 8 7 33 10 55 4 22 8 47 10 55 26 100
26 496 0 645 -57 329 -151 583 -307 833 -105 169 -223 311 -382 459 -127 120
-198 146 -298 112z"/>
</g>
</svg>
